<svg width="6065.6" height="4272.8" viewBox="0 0 1605 1131" xmlns="http://www.w3.org/2000/svg">
  <path style="fill:#fae8a0;stroke-width:.264583" d="m-328 464-13-2a133 133 0 0 1 0-259 121 121 0 0 1 53 0 132 132 0 0 1-40 261z" transform="translate(1399 466)"/>
  <path style="fill:#fad95e;stroke-width:.264583" d="M-328 464a132 132 0 1 1 27-263 132 132 0 0 1-27 263z" transform="translate(1399 466)"/>
  <path style="fill:#fdc80e;stroke-width:.264583" d="M-325 464a132 132 0 1 1 42-260 131 131 0 0 1 86 70 132 132 0 0 1-128 190z" transform="translate(1399 466)"/>
  <path style="fill:#fbb609;stroke-width:.264583" d="M-321 443a110 110 0 0 1-104-110c0-10 0-14 2-22a111 111 0 0 1 210-22c6 14 9 28 9 44a107 107 0 0 1-45 89 113 113 0 0 1-72 21zm1-14v-3h-9l-1-5v-5h-9v14h2c3 1 16 3 17 2v-3zm17 3 12-2h1v-4h-19v7l6-1zm-46-35v-30h-60l4 9h23l23 1a643 643 0 0 1 1 45l4 3h2l2 1 1-29zm39 28v-9h-9v9h9zm36-1 3-1v-7h-19v9h14l2-1zm-17-9 1-4v-4l-5-1h-4l-1 5v4l5 1 4-1zm35-1 8-7 1-1h-4v-19h-9v4l-1 5-5 1h-4v19l6-1h6zm-113-13v-14h-29v1l3 5a95 95 0 0 0 25 22h1zm49 4v-8h-19v8l10 1 9-1zm18 1h2v-20h19v-19h-9v10h-30v-20h-10v-9h-9v28h5l5 1v9h10v10h10v10h7zm31-10v-9h-9v9h9zm27-20h19l2-3 1-4v-2h-39a165 165 0 0 1 0-20h10v5l1 5h8v-10l1-10h9v-9l6-1 5 1v9h6v-18l-1-1h-6v-10h-19v10h-10v19l-10 1h-9v4l-1 5-4 1h-5v9h10v20l3-1h23zm-56-10v-9h-9l-1 5 1 4 4 1 5-1zm-108-14v-4h-5v1l1 8h4zm28 5h1v-19h-9v19h8zm31 0v-9h-19v9h19zm57 0h1l1-5v-4h-9l-1 4v5h8zm74 0 1-2 1-3v-4h-5v9h3zm-123-10h1l1-5v-4h-9l-1 4v5h8zm20 0h1v-5l1-5h9v-29h19l1-19-1-20h-9v10h-9v9h9v10l-5 1-5-1v-9h-9v9l-5 1h-5l-1-1v-29h-9v39h10v10h-10v9h5l5 1a188 188 0 0 1 0 19h8zm19 0h2v-9h-9v9h7zm79 0h1v-9h-9v9h8zm-187-10h2v-19l5-1h5v-9h-14v2a139 139 0 0 0-3 27h5zm20 0h2v-19h-9l-1 19h8zm30 0h11v-9h-29v9h18zm79 0v-9h-19v9h19zm20-15v-4h5l5-1v-9h-29v19h19zm-119-5h1v-9h-9v9l4 1 4-1zm40 0 1-4v-5h-19v9l9 1 9-1zm-9-49-1-29-8 3-1 1v46h-46v1l-3 7-1 1h60zm128 30-3-8-1-1h-46v-47h-1l-8-3v59h59zm-148-34v-14h-1c-1-1-2 0-5 3-9 6-16 14-22 22l-1 3h29zm137 13-4-6c-6-8-11-13-18-19l-5-2h-1v28h28zm-88-27v-17h-1l-8 1v6h-10v19h10v10l4-1h5zm20 14v-5h-9l-1 5 1 4 4 1h5zm10-10v-4h-10v9h9zm-10-10v-5h10v-4l-17-2-2-1v17h9z" transform="translate(1399 466)"/>
  <path style="fill:#fda100;stroke-width:.264583" d="M-322 442a109 109 0 0 1-76-37 110 110 0 1 1 76 37zm17-9 5-1 7-1 3-1v-4h2l7-1h5l3-1 2-1v-2l1-3v-2h6l6-1 11-9h-4v-20h-10v10h-5l-4 1-1 9v10h-19v9l-7 1h-12l-1 3v4h5zm-15-2 1-3v-2h7l2-1v-9h-9l-1 5v4h-2a514 514 0 0 0-7 1v-10h-10v14l5 1 4 1 10 1v-2zm-29-34v-30a1144 1144 0 0 0-60 0l4 9v1l23-1 23 1v46l2 1 3 1 3 1h2v-29zm56 19h3v-10h-10v10h7zm-76-15v-15a458 458 0 0 0-29 2l2 3c6 9 13 16 23 23l3 2h1zm42 5h7v-5l1-4 5-1h4v10h10v-19l10-1h9l1-9v-10h-10v9l-15 1h-14l-1-10 1-10h-10v-9l5-1h4v-5l1-5h9v-29h20v-39h-10v9l-5 1h-5v9h-5l-4 1-1 4v5h-9v-29h9v-37l-9 1v3l-1 3h-9v20h10v4l-1 5-4 1h-5v19l-1 20h-19v10h20v-10h9l1 5-1 4-4 1h-5v10h10v9l-1 10h-9v30h9l1 5v5l4-1 5 1v9h-19v10h12zm17-108v-5l1-4h4l5-1v10h-10zm37 98h2v-10h-5l-4 1v9h7zm29-20h19l2-3 2-4v-2h-40v-20h10v10h10v-19l5-1h4l1-5v-4h10v3l-1 4v2h-5l-4 1v9h9v-2l1-5v-2h3l3-1 1-4-1-15h-3c-4 0-4 1-3-7v-3h-20v10h-10v19h-20v10h-9v10h9v19l4 1 23-1zm-60-9h4v-9l5-1h5v-10h-10v10h-10v10h6zm-104-12v-5c1-3 1-3-3-3l-3 1 2 9h4zm29 2 1-10v-9l15-1h14v-9h-29l-1 4v5h-4l-5 1v19h9zm24 0h6v-5l1-4 4-1h5v-10h-5l-5 1v9h-10l-10 1v9h14zm138-2 1-3 1-5h-6v3a253 253 0 0 1-1 7h5v-2zm-87-8h4v-4l1-5 9-1h9l1-4v-5h10l9-1v-9h10v-10h-29v10l-1 9-9 1h-10v9h-5l-4 1-1 3v6h6zm-106-10h2v-19h10v-10h-14a92 92 0 0 0-3 29h5zm18 0h4v-19h9l1-5v-5h-10v5l-1 5h-9v19h6zm43-39a1281 1281 0 0 0 0-60l-9 4h-1v46h-46v1l-4 9a413 413 0 0 0 60 0zm128 0v-2l-1-2-1-3-1-3h-46l-1-23v-23l-9-4v60h59zm-148-20v-14l1-15h-2l-4 2c-8 6-16 15-22 23l-2 3v2l29-1zm137 0v-1l-6-9c-5-7-11-12-18-17l-3-2h-2v29h29zm-71-9h3v-10h10v-10h-7l-3 1v9h-10v10h7zm2-20h1v-9l5-1h5v-4h-1l-18-3h-1v17h9z" transform="translate(1399 466)"/>
  <path style="fill:#fb9402;stroke-width:.264583" d="m-319 438-15-3v-4l5 1 7 1h2v-1l1-1 2-1h2v-4h5v-3l1-2 2-1 2 1v4l-2 1h-3v2c0 3 0 3-2 3h-2v7h-5zm14 0v-3c0-2 0-2 4-3l6-1 6-1h3v-2l1-2h9l3-2 3-2v-1l2-1h2v-4h8l1-1 10-9h-4v-15h5v20h5l-10 9-2 1h-12v7l-4 2-3 1h-13v2c0 2 0 2-2 3l-17 2h-1zm-42-7-7-3v-3l2 1 3 1a579 579 0 0 0 0-55h5v60l-3-1zm18-5v-5l2-1 3 1v4l-5 1zm-38-6a100 100 0 0 1-14-12l5 4 7 4v-12l1-13h5v15l-1 15-3-1zm72 1v-5h5v-5h5v5h-5v2c0 3 0 3-3 3h-2zm-99-13a109 109 0 0 1 29-173 110 110 0 0 1 129 21l-2-2a110 110 0 0 0-153 158l-3-4zm60 3v-5h14l1-3v-2h4v-4l3-1h2v3c0 2 0 3-2 3h-2v9h-20zm29 0v-5h5v5h-5zm5-15v-9h20l-1 2v3h-13v7l-1 7h-5zm24 5v-4l3-1h3v-5h4l1 3c0 2 0 2-3 2h-2v2c0 4 0 4-3 4l-3-1zm-49-10v-4h5v5h-2l-3-1zm45-12v-7h5v14l-3 1h-2zm-120 3-2-5h43v5h-41zm66 0v-5h5v2l-1 3h-4zm68 0v-5h41l2-3 1-2h5l1 2-1 4-2 3v1h-47zm-53-6-1-7 1-7 2-1 3 1v14h-5zm14-4v-5h5v-3l1-2 2-1h1v-1l1-3h2c3 0 3 0 3-3v-2h5v10h-9v5l-1 5h-10zm45-5-1-10v-10h5l5 1v2c0 2 0 3-3 3h-1v7l-1 7h-4zm-147-5-1-2v-6l1-2h4l1 5-1 5h-4zm24 0-1-2v-3h6v-7c0-9-1-8 2-8h2v-4h25v5h-24v19h-10zm19 0v-5h15v-3l1-2h3l1-2v-2l2-1h3v6h-4v4l-1 5h-20zm88 0v-5h5l1 2c0 3-1 3-3 3h-3zm30 0v-5h5v-19h10v2c0 3 0 3-3 3h-2v19h-10zm29 0v-4l1-6h5l1 4-2 6h-5zm-112-5v-3c0-2 0-2 2-2h2v-4l3-1h2v-5l1-4h9v5h-4v9l-5 1h-5v1a211 211 0 0 1 0 3h-5zm24-5v-4l3-1h2v6h-2l-3-1zm78 0v-4l3-1h2v-2l1-3h4v-2l1-2c2-1 2 0 2-3v-12l4-1c1 1 2 20 1 21h-7v4h-5v3l-1 2h-5zm-112-7v-3h3c2 0 2 0 2 3 0 2 0 2-3 2h-2zm39 0 1-3h3v-2l1-2h7l7-1 1-2v-3h4v-2c0-3 0-2 8-2l7-1v-4l1-5h9v-5h5v5h-5v5h-4v5l-1 5h-19v10h-19l-1 2v2h-5zm-110-2-1-2c0-3 0-3 2-3l1-1v-19h10v-2c0-3 0-4 3-4l2 1v5h-5v5h-4v10l-1 10h-7zm17 0v-5h5v5h-5zm5-13v-7l2-1h2v-4h2c4 0 4 0 4-2 0-3 0-4 2-4l3 1v10h-10v14h-5zm39 5 1-3h2c2 0 3 0 3 3l-1 2h-5zm39-12 1-15h19v-35h2l3 1v39h-10l-9 1v11l-1 12h-5zm79 10v-5h9v5h-4v4h-5zm-103 0-1-3c0-2 0-3 3-2h2l1 2-1 3h-4zm-20-10v-5h15v2l-1 3h-14zm15-8v-2h2l2-1v-1c0-3 1-3 3-3h2l1 2-1 3-2 1h-2v3l-3 1h-2zm118 0v-2h4l1 2v3h-5zm-183-11v-1l2-5h53v-26a484 484 0 0 1 2-28l3-1a1447 1447 0 0 1 0 60l-30 1h-30zm129 0-1-3v-2l28-1a579 579 0 0 0 27-2l-1-3h3l1 2 3 8-1 1h-59zm-54-6a215 215 0 0 1 0-24l2-1h2v-2c0-2 0-2 3-2h2v-16l1-16h5v37h-10v24h-5zm19-2 1-3h4v-2c0-2 0-3 3-3l2 1v2c0 3 0 3-2 3h-2v2l-1 2h-5zm40-29v-22l2 1 3 1v41h-5zm-123 16c-1-1 0-4 2-4h22v-12l1-11c0-2 3-3 4-2l1 15v15h-15l-15-1zm137 1v-5h13c12 0 12 0 12-2l-5-7-3-4h1l12 15v2l-15 1h-15zm-49-10v-5h5v-5h2l2-1v-1c0-3 1-3 4-3 2 0 2 0 2-3v-2h5v10l-5 1h-4l-1 2v2h-5v5h-5zm-29-10-1-2c0-3 1-3 3-3h2v5h-4zm29-10v-2c0-3 0-3 3-3h2v5h-5zm5-10v-5h13l2 1v4l-5 1h-4v2l-1 2h-5z" transform="translate(1399 466)"/>
  <path style="fill:#fc6d00;stroke-width:.264583" d="m-320 437-14-2v-3h4l10 1 1-1v-1h4v6l-1 1-4-1zm15 0v-2c0-2 0-2 5-3l5-1h10v4c-1 1-19 3-20 2zm-43-7c-6-2-6-2-6-4h3l2 1v-55h5a490 490 0 0 1-4 58zm33-2 1-2h4v4h-5zm30 2v-4h9l2-1 4-3v-1h4v7l-2 1-11 1h-6zm-44-5v-4h4v4h-4zm20-2v-2h4v4h-4zm-58-3-9-7 2 1 5 2h1v-24h4v29h-1l-2-1zm72 0v-4h5v5h-3l-2-1zm30-2v-2h6l2-1a85 85 0 0 0 11-8v4h4l-1 2-9 6-2 2h-11zm-25-5v-2h5v5h-5zm-44-2v-4l7-1h7l1-2v-3h4v-2l1-2h4v4h-5v10h-19zm29 0v-4l3-1h2v5h-5zm-92-5a109 109 0 0 1-21-112 111 111 0 0 1 130-68 108 108 0 0 1 44 23 110 110 0 0 0-153 157zm97-10v-9h19v4h-14v15h-5zm49 3v-7h5v14h-5zm-24 2v-4h4v4h-4zm5-7v-3h4v5h-4zm-54-3v-4h4v4h-4zm44-12v-7h4l1 7c0 8 0 7-3 7h-2zm-120 2-2-4h43v5h-20l-21-1zm66 0v-4h4v5h-2l-2-1zm69-2v-2h41l1-3c1-2 1-2 4-2h2v2l-1 4-1 3-24 1h-22zm-54-3v-14h4v14h-4zm14-5v-4h5v-3l1-2h4v-4l2-1h3v-5h5v10h-10v10h-5l-5-1zm45-4v-19h9v4h-5v15h-4zm-147-5-1-5 1-2v-3h4v10h-4zm24 0v-5h5v-15h5v-4h24v4h-24v20h-10zm20 0-1-2v-3h15l1-2v-3h4v-4h5v4h-5v10h-19zm88 0v-4h4v1c0 3 0 3-2 3h-2zm29 0v-5h5v-19h9v4h-4v20h-10zm30 0v-10h3c3 0 3 0 2 5s-1 5-3 5h-2zm-113-5v-5h4l1 2-1 3h-4zm5-5v-4h2c3 0 3 0 3-5v-5h9v4h-5v10h-9zm19 0v-4h5v4h-5zm79-2v-2h4v4h-4zm-113-5v-3h2c3 0 3 0 3 3v2h-5zm118 2v-5h4v5h-4zm-78-2v-3h4v-4h15v-5h5l-1 4v5h-19v5h-5zm-111-3v-4h1l1-1 1-9v-10h9v5h-5v19h-7zm17 0v-4h5v2l-1 2h-4zm177-2v-2c2 0 2 0 2-7v-8h3c1 1 2 17 1 19h-6zm-172-10v-7h5v-5h5v-5h5v10h-10v14h-5zm40 5v-2h1c3 0 3 0 3 2v2h-4zm39-12v-15h19v-34h5v19l-1 20h-19v24h-4zm78 9v-4h9v4l-2 1h-2v2l-1 2h-4zm-103 0v-4h4v4l-2 1-2-1zm59 0v-4a95 95 0 0 1 14 0l1-5v-5h9v2c0 3 0 3-3 3h-2v9h-19zm-79-9v-5h15l-1 2v3h-14zm-44-8v-2h5v4h-5zm59 0v-2h5v4h-2l-3 1zm88 0 1-2h4v4h-5zm30 0v-2h4v4h-4zm-113-2v-2c0-3 0-3 2-3h2v5h-4zm-70-10 2-4 26-1h27v-53l5-1v59h-60zm129 0v-4a1231 1231 0 0 1 55-1l-1-2c-1-2-1-3 1-3l1 2 3 8h-59zm-54-5v-24h4v24h-4zm20-2v-2h4v4h-4zm4-3v-2c0-2 0-2 3-2h2v4h-5zm35-26a580 580 0 0 1 2-21l2 1v41h-4zm-123 15 1-2 1-1h23v-23l1-1 2-1h1v29h-29zm137-1 1-2h24v-3l-2-3-2-2 7 8 2 3v1h-30zm-49-8v-4h5v5h-2l-3-1zm-19-2c0-2-1-2 3-2h2v-31l2-1h2v36h-5l-4 1zm24-5v-2h5v-5h5v-5h5v10h-10v5h-5v-3zm-34-2v-2c0-3 0-3 2-3h2v5h-4zm29-10v-2c0-3 0-3 3-3h2v5h-5zm5-10v-4h5l5-1 3 1c2 0 2 0 2 3v1h-10v5h-5z" transform="translate(1399 466)"/>
  <g style="display:inline" transform="translate(953 663) scale(.26458)">
    <path style="display:inline;fill:#f60;stroke-width:1.44622" d="m369 167 1 83v138h101v-30l1-30h32c35 0 40 1 48 8 5 5 7 11 6 20s-5 14-13 18c-6 3-8 4-36 4l-29 1v59h33l33 1 8 4c11 5 15 12 15 26 0 12-4 20-11 24-9 6-14 6-47 7h-31v78l73 1c24 0 25-2 32-4 45-11 74-37 83-74 3-12 2-36-1-49-6-23-23-42-46-53l-7-2 4-3c17-11 28-24 32-37 4-11 4-31 2-43-6-27-25-48-54-57-21-6-28-7-132-7h-24l1-83zm-62 394v98h73v-98z" transform="translate(82 98)"/>
    <path style="fill:green;stroke-width:1.33333" d="M368 682c-32-4-64-20-86-43-30-32-45-73-45-124 0-55 15-97 49-130 20-20 45-33 75-40 10-2 8-21 7-81h74v176l-4-4a57 57 0 0 0-57-11c-31 10-46 42-44 96 1 20 3 29 10 44 8 17 23 30 41 35 35 9 66-4 75-31v-3h-44v-69h134v39l-1 91v131l-74-1v-92l-1-12-9 6c-13 11-30 19-50 22-9 2-40 3-50 1z"/>
    <circle style="opacity:1;fill:none;stroke:#f60;stroke-width:68;stroke-miterlimit:4;stroke-dasharray:none" cx="494" cy="510.7" r="378.4"/>
  </g>
  <path style="fill:#f8e8a0;stroke-width:.264583" d="M31-117A132 132 0 0 1-86-260l1-13a131 131 0 0 1 68-93 134 134 0 0 1 136 7l6 4a134 134 0 0 1 49 74c3 12 4 19 4 34a120 120 0 0 1-22 71c-3 6-4 7-8 11a145 145 0 0 1-50 38 129 129 0 0 1-67 10z" transform="translate(559 1024)"/>
  <path style="fill:#f4d75d;stroke-width:.264583" d="m34-117-14-2a132 132 0 1 1 14 2z" transform="translate(559 1024)"/>
  <path style="fill:#fbc712;stroke-width:.264583" d="m35-117-4-1a136 136 0 0 1-76-35 145 145 0 0 1-25-32 130 130 0 0 1-7-112 132 132 0 0 1 116-84 69 69 0 0 1 20 1 135 135 0 0 1 71 30 135 135 0 0 1 48 107l-1 6a134 134 0 0 1-23 63 133 133 0 0 1-119 57z" transform="translate(559 1024)"/>
  <path style="fill:#fdc80e;stroke-width:.264583" d="M38-118h-2l-4-1h-7l-2-1h-2c-1 0-2 0-1-1h1-3l-2-1h3c2 0 3-1 1-1h-2l-2 1h-5v-1H8l-2-1H5l-1-1-2-1H1v1l-1-1 1-1-1-1-1 1h-3l-1-1h-1v-2h-1l-1 1v-2h-1c0 1-3 1-4-1h-1v-1h-1l-2-1h-1v-1h1v-1h-1l-1 1-3-2-2-1v-1h-2l-1-1c1 0 0 0 0 0l-1-1h-1l-1-1-1-2v2l-1-1v-2h-2v-1l1-1h-1l-1 1-1-1v-1h-1s0-1 0 0h-1l-1-1-1-1-3-2-1-1v-1h-1l-1-1-1-2h-1v-1l-1-1c-1 1-1 1-1-1l1-1h-3l-1-2v-2l-1 1-1-1-1-1-1-1v-1h-1v-4 1l-1 1-1-1-1-1-1-3v-1h-1l-1-1-1-2-1-1v-1l-1-1-1-1-1-3-1-1c1 0 1 0 0 0l-1-2h1v-2l-1 1-1-1-1-2-1-3-1-1v-3l1-2v1l-1 1h-1v-2l1-1-1-1v1l-1 1v-1l-1-1v-2l-1-3 1-2v-1 1h-1l-1 1v-3c0-2 0-3-1-2 0 1 0 1 0 0l-1-1v-4l-1-2v-2c-1 0-2-8-1-9v-1h-1v1-11l-1-2-1-3 1-3 1-1v-2l1-2 1 2c0 2 0 3 1 2l-1-3v-1l-1-2-1-3v-4l1-2v-5l2-4v-1l1-4v-4l1-1 1-2c0 1 0 1 0 0v-1c0-1 0-1 0 0h1v-3l1-2 1-2 1-3v3l1-1v-2l-1-2 1-1 1-2 1-2v1h1v-3l1 1v-3c0 1 1 1 1-1v-2l1-1 1-1 1-1v-1l1-1h2l1-1v-1h-1l-2 1v-1l3-3v-1l1-1h1v-2l2-2a37 37 0 0 1 5-6l3-3v1l1 1v-1l1-2c1 1 1 1 2-1l1-1 1-2c2 0 2-1 1-1h-1l4-3 4-4 3-2h1l1-1v-1h1l1-1 1-1h1l1-1h1l-1 1-1 1h2l1-1v-2l1-1h2l1-1 1-2h2c1 0 2 0 1-1h4l-2-1c-1 0-1 0 0 0l1-1h1l3-2h3v-1h1l2-1h1l2-1 3-1h1c1 0 1 0 0 0l1-1h1c-1 0 0 0 0 0l3-1 2-1h2l1-1v1h1v-1h3l6-2h9l3 1h1c1 0 1 0 0 0l-1-1-1-1h5a703 703 0 0 0 9-1l2 1h4c1 0 6 0 5 1h9l2 1h2l2 1 4 1h1v1h4v1l2 1h4l1 1h1v1l-1 1h1l1-1h1l1 1h3l1 1 4 2h1v2l-1 1 1-1h1l1 1v-2l1 1v1l1 1 1 2 3 1v-1l-2-1-1-2h-1l5 2 1 1h1v1l4 2c-1 1-1 1 1 1l2 1 2 1v2h-1 4v1l1 1h1l1 1v1l1 1h1l1 1 1 1v1l-1 1h3l1 1v1l1 1 3 2 1 1v2l1 1h1l-1-1v-1l2 2 1 1v1l1 2h2l-1 2v1h2v2-1h1l1 1c1 0 1 0 0 0 0 1 0 2 1 1v2h1l1 1 1 1 1 1-1 1v1l1-1v1l1 1 2 3-1 1v2-1l1-1 1 1 1 2v1l1 1 1 3v2h-1l1 1c1-1 1-2 2-1l-1 1v1h1l1 1v6h2v3h1v3h1v1l1 1v3h1v1l-1 3v6l1-3 1-4v6-1l1 1v4l1 2v8c0 1 0 1 0 0 1-1 1 0 1 2l-1 2-1 1h2c0-1 0-1 0 0v4l1 2v1l-1 1v4l-1 3v8l-1 8h-1l-1-1 1 1-1 5v2-2l-1-5v-1 5l1 4v1l-1 2-1 4-1 2v1h-1l-1-1v5l-1 1v2h-1v4-2l-1-2-1 1v1l1 4-1-1v1l-1 3-1 2-1 2-1-1-1-1v2l1 1v1l-2 2-1 1v1h-1l-1 2v1s-1 0 0 0l-1 2-1 2-1-1h-1l1 2-1 1-1 1-2 3-1 2-2 1-1-2 1 2-1 1v1h-1v2l-4 3-2 2-2 2-1 1h-1v1l-1 1h-2l-1-1 1 2v1l-2 1-3 2-1 1-1 1h-2l1 1-2 1-2 1v1h-3v1l-1 1h-1l-1 1-1 1h-1l-1-1v2h-1l-1 1-1 1v-2l1-1h1v-1h-2l-1 1h-1v1h1l-1 1v1h1l-1 1h-4 1c1 1 1 1-1 1h-4l2 1h1-1l-1 1h-1l-2 1h-7l1 1h2l-3 1-2 1-1 1h-3l-1 1-3 1h-7 1l-1 1-9 1h-1l-2 1h-3l-4 1h-2v-1l-1-1-1 1v1h-5l-4-1zm3 0-1-1v1h1zm14-1h-2l1 1 1-1zm-32-3v1-1zm53 0 1-1h-3c-4 0-4 0-3 1h5zm-61-1c-1 0 0 0 0 0zm64 0h-1 1zm-72-3-4-2c-1 0-1 1 1 1l1 1h2zm84-1v-1l-1 1h1zm5-1-1-1v1h1zm4-4h-2v1l2-1zm-110 0h-1v1l1-1zm113 0h-1l1 1v-1zm-117-2-1-1v1h1zm75-2v-1l-1 1h1zm52-3 1-1c1 0 1 0 0 0h-1v1l-1 1 1-1zm-71 0h-2l1 1 1-1zm2 0h-2 2zm-10 0h-2 2zm3 0zm25 0h-5 5zm-81 0-1-1v1h1zm31-1v-1c-1 0-2 0-1 1h1zm14 0-2-1h-1l3 1zm40 0-1-1-1 1h2zm4-1h-1 1zm-49 0-2-1v1h2zm53-1h-1 1zm-57 0-2-1h-1l2 1h1zm-44-1h-1 1zm105 0v-1l-2 1h2zm-65 0v-1h-2v1h2zm-41-1-1-1-1 1h2zm111 0v-1l-2 1h2zm8-1h-1v1l1-1zm-84 0-3-2v1l3 1zm80-1h-1 1zm39-1-1-1v1h1zm-157-1h-2v1l2-1zm160 0 1-1h-2l-1 1h2zm-164 0v-1l-1 1h1zm35-1h-1a374 374 0 0 1 1 0zm93 0h-1 1zm7-3 1-1 1-1-2 1-2 1-1 1 3-1zm-140 1v-1l-1-1h-1v1h1l1 1zm172-1v-1h-1c-1 0-2 0-1 1h2zm-141-1-4-2 1 1 1 1h2zm144-1 1-1 1-1h-1l-2 2h1zm-29-1v-2l-3 2 1 1 2-1zm-151-1h-1 1zm31 0v-1 1zm153-1h-1v1l1-1zm-155 0-1-1c-1 1 0 1 1 1zm124 0v-1l-1 1h1zm32-3 1-1-3 2 1 1 1-2zm-30 1c1 0 1 0 0 0l-1 1 1-1zm-129 0-1-2-2-1h-1l1 1 1 1 2 1c1 0 1 0 0 0zm131-2v1-1zm2-1 2-1 1-1h-2l-1 2h-1 1zm-139-2v1-1zm169 0-1-1h-1l1 2 1-1zm2-2h1v-1l-1-1v3-1zm-173 0zm146 0h-1 1zm-148-1-3-4c-9-9-16-18-21-29l-2-3 1 4 1 1v1l1 1 1 1v2l1 1 2 3 1 1 1 1 1 2 3 5v2h1c1-1 2-1 2 1h1l1 2v1l1 1a91 91 0 0 0 5 5l1 1h1zm150 0v-1l-1 1h1zm27-2-1-1v1h1zm-119-3a206 206 0 0 0 0-18h15v5l1-1v-3l-1-1v-1H30l-2 1v17h-4l-5 1h10zm29-9v-10h6l17-3 1-1h-2l-1 1v-1h-4c-1 0 0 0 0 0l2 1-7 2h-4l-4 1h-3l-1 1v17h-5l-4-1v1c-1 1 0 1 4 1h5zm-117 8h-1v1h1v-1zm74 0v-1l-1 1 1 1v-1zm30 1-1-2v2h1zm-102-2-1 1 1-1zm185 0-1-1v1h1zm1-2v-1 2-1zm-190-2h-1l1 1v-1zm-2 0c1 0 0-1 0 0v1-1zm195-1 1-1 1-1v-1l1-2-1 1-3 3-1 2 2-1zm25-3v-1l-2 1v1l-1 1 1-1 2-1zm-223-1v-2l-1-2h-2v1l2 2 2 2-1-1zm21 0h-2v1l2-1zm181-2 1-1-1 1v1-1zm-184-1v-2l-1 2v1c0 1 1 1 1-1zm63-1a641 641 0 0 1 0-4h-4 1l2 1 1 3v2-2zm123 0v-1l-1 1h1zm2-2v-3l-2 3h2zm21 0-1-1c0-1 0-1 0 0l-1 1h2zm1-1v-1l-1 1 1 1v-1zm-168-1h-1 1zm13 0H-4 7zm-77 0v-3l-1-1-1 2 1 1h1v1zm61-3v-2l-1 4 1-2zm151 1v-1l1-1v-2h1v-1l-1 1-1 2-1 2h1zm-73-1h1-4l1 1 2-1zm-141-1-1-1v2l1-1zm156 0 2-1 5-4-2 1-1 1h-1l-1 1-4 2h2zm80-1-1-1v1h1zm-220-4h-1l1 1v-1zm49 0v-1l-1 1h1zm100-1c6-6 9-14 8-24 0-5-1-8-3-13l-3-4-1-1-3-3 1 2 2 1v1h1l1 1v4c1 0 1 0 0 0l1-1 1 2 2 4v5l1 5a4670 4670 0 0 0-4 14v2l-2 1-1 2h-2 1l-1 2-1 1h1l1-1zm-1-1h-1v1l1-1zm54-1v1c0 1 0 1 0 0v-1zm-152-1v-1h-1v1h1zm40 0h1l1-1h-3c-2 0-1 0-1 1h2zm116-1c0-1 0 0 0 0 0 1 0 1 0 0zm-121 0h-1 1zm-85 0-1-3a112 112 0 0 1-6-63l-2 17a113 113 0 0 0 1 25v2l1 1a40 40 0 0 0 3 9v2l1 3 2 5v1l1 1zm91-1-2-1h-3v-35h30l8 3c3 1 5 2 6 4 2 1 3 5 3 5l1 1v-2l-1-1-5-7h-2l-2-1-2-1-3-1h-3l-3-1H47a379 379 0 0 1-18 0v18l-1 17 2 1 2 1h3zm-29-1 1-38a2341 2341 0 0 0-1 38zm51 0h-3 3zm39-1h-1v1h1v-1zm-156-2v-2l-1 1 1 1v2-2zm130 2-1-1v1h1zm79-1-1 1h1v-1zm-83 1v-1l-2 1h2zm31 0v-4l-1 2 1 2zm-25-3 1-1 1-1 2-1s1 0 0 0l1-2v-2l-1 1-2 4-2 1-1 1h-1 2zm-133-2c0-1 0-2 0 0v1-1zm-18 1v-3 2l-1 1h1zm230-1-1-1v2l1-1zm-230-3h-1 1zm231-1v-2l-1 3 1-1zm-216-4v-2 2zm217-1v1-1zm-235-3-1-6v-8c-1-1-1 0-1 3v8l1 3v1h1v-1zm236 0v-1 1zm-219-5h-1l1 1v-1zm220 0h-1 1zm1-6v-2l-1 2 1 3v-3zm-82-3v-1 2-1zm-2-2-2-1v1h2zm-155-3-1-2v3c1 2 1 1 1-1zm128-1h-5l-8-1h-2l1 1h14zm8 0h-4 2l2 1v-1zm35-1v-1l-1 1h1zm-3 0-1-1-1-1v2h2zm4-2-7-3-2-1 2-2c4-3 8-9 10-15l1-9a31 31 0 0 0-8-19l-1-1v2l2 2 1 1 1 1 1 2 1 2v2l1 2 1 3v6l-1 7-1 2-1 3-1 1-1 1v1l-1 1-1 1v1l-2 1-3 3-1 1 2 1 2 1h1l1 1 2 1h2v1-1zm67-3v-2 5-3zm-128-3v-1 1zm3-1v-1h8a96 96 0 0 0-9 0v-35h21c6 1 10 2 13 4l4 5 1 1v-1l1-1v-2l-1-2v1c0 3-1 3-1 1l-1-1h-1l-1-1-1-1-3-1-3-1-8-2a107 107 0 0 0-19 0l-1-1-1 1-1 1v1l1 17v15h-1v1l2 2v1l1-1zm5 0h-1v1l1-1zm17-1-2-1-3 1h5zm4-1s1 0 0 0h-1 1zm4-1v-1l-1 1s-1 0 0 0h1zm95 0v-1 1zm-238-3c0-2-1-3-1-1l1 3v-2zm238-1-1-1 1 2c0 1 0 1 0 0v-1zm-68-3c1-1 0-1 0 0l-1 1 1-1zm-171 0-1-2v2h1zm153-3v-1l-1 2h1v-1zm85-3h-1v1c1 1 1 0 1-1zm-237 0-1 1h1v-1zm17 0v1-1zm219-3-1-2v2h1zm-218-1v-1l-1 2 1-1zm3-3a111 111 0 0 1 75-78l-2 1-2 1H8l-2 1H5a24 24 0 0 1-8 3l-1 1-1 1-2 1h-1l-1 1-2 1h-1l-3 2h-3 1l1 1c0 1-1 2-2 1v1l-1 1h-1l-1 1h-1l-1 1-1 1v1h-1a219 219 0 0 1-9 8l-3 3a19 19 0 0 0-3 4l-1 1v1h-1l-1 1-1 2-2 2-1 2-1 2-2 2-1 2v1l-1 1v1l-1 2-1 2-1 2-1 2-1 2-1 2-1 1v4l-1 2-1 1v2l-1 3 1-1zm131-1c0-1 0-2-1-1l1 2v-1zm83 0-1-1 1 2v-1zm19-1s0-1 0 0l-1 1 1-1zm-250 0v-1l-1 1h1zm230-1-1-2v2h1zm-231-1v-2l1-2v-1l-1 1-1 2v3l1-1zm252 0h-1l1 1v-1zm-18-1-1-1v2l1-1zm-4-1v1-1zm-212-1v-1 2-1zm212 0-1-1v1h1zM7-286v-5l-1-1h-9l4 1h5v6l1-1zm-66-1-1-1-1 1h2zm127-1-1-1-1 1h2zm21-1h-1v1l1-1zm61 0v-1l-1-1-1-1v2l1 2 1-1zm19 0-1-1v-1c-1-2-1-2-1 0l1 2h1zm-81-1-1-1v1h1zm-27-1-1-1h-2l-2-1v1l2 1h3zm-135-2v-2l-1 1-1 1h2zm220-3-1-1 1 2v-1zm-153 0v-1h-1l1 1zm152-2v-1 1c0 1 1 1 0 0zm-63-1-2-1 2 1v1h1l-1-1zm-89-1-1-1v2l1-1zm79-1-1-1-1 1h2zm7 0-1-1v1h1zm-2-1h-1l1 1v-1zm66-1-1-1v-1l-1-1-1-2v2l1 1 1 2 1 1v1l1-1-1-1zm-69 0-1-1c-1 0-1 0 0 0l1 1zm-83-2 1-1 1-1h1-2l-2 2 1 1v-1zm-43-1c0-2-1-2-1 0l1 2v-2zm85 1v-1c-1 0-2 0-1 1h1zm26 0v-1l4 1h5l-4-1-5-1-1-10a81 81 0 0 0 0-7 159 159 0 0 1 0 17v1h-1v1h2zm-23-1h-1v1l1-1zm127 0v1-1zm-127-1h4l-7-1h-4v-13l-1 7 1 7h7zm-21 0v-2h-1l-1 1-2 1h4zm30-1-1-2v1l-2 1-2 1h2l3-1zm-94-1-1-1v1h-1 2zm188 0h-1 1zm22-1h-1l1 1v-1zm-23-1-1-1v1h1zm-186-1h-1l1 1v-1zm184-3-1-1-1-1-1-1-1-1v-1l1-1h-2v2l1 2 1 1h1l1 2 1 1v-2zm20 0h-1v1l1-1zm-221 0-1-1v1h1zm21-2v-1 1zm-17-1h-1 1zm190-4c-1 0 0 0 0 0 1 1 1 1 0 0zm24 0-1-1-1 1h2zm-192-1-1-1v2l1-1zm-22 0h-1l1 1v-1zm90-2v2-2zm122 1v-1h-1v1h1zm-23 0-1-1-5-5-1-1v-2h-3l-1-1-1-1v-2l-1 1-2-2-3-2-2-1-1-1a62 62 0 0 0-6-3l-1-1-4-2-4-2c-2 0-1 0 3 2a105 105 0 0 1 32 24h1zm-164-2h-2 2zm-22-1v-1h-1l1 2v-1zm205 0-1 1 1-1zm-204-3h1v-1h1l1-1 1-1v-1h-1a311 311 0 0 1-3 4zm204 0h-1 1zm-200-1h-1v1l1-1zm22-1v-1l-1 1 1 1v-1zm3-3h-2v1c1 0 3 0 2-1zm-20 0h-1 1zm-3-1c1 0 0-1 0 0h-1 1zm29-3h-1v1l1-1zm161-1h-1v1l1-1zm-26 0-1-2v2h1zm-2-3-2-1-2 1 2 1 2-1zm-151-1h-1l1 1v-1zm26-1h-1l1 1v-1zm-27 0 1-1h-1v1zm31-2-3-1 2 1h1zm-28-1v-1l1-1h1v-1l-1 1a301 301 0 0 1-1 2zm2 0v-1 1zm126-3-2-1h-1l-5-2-2-1h-2l-2-1-6-2-3-1h-8a168 168 0 0 0-35 1l-3 1h-2v1a121 121 0 0 1 38-3 113 113 0 0 1 33 8zm5 0-1-1 1 1zm-97-1h-1v1l1-1zm-32 0v-1l-1 1h1zm155 0v-1 1c0 1 0 0 0 0zm-153-1h-1 1zm155-1-1-1h-1l1 2 1-1zm-36-1h-2l-2-1h-2 1l1 1 2 1 2-1zm-79 0 1-1h2-2a4806 4806 0 0 0-1 1zm-36-1s0-1 0 0h-1 1zm146 0h-1 1zm-141 0v-1l-1 1h1zm140-2c1 0 1 0 0 0h-1 1zm-97-1c1 0 1 0 0 0h-1 1zm54 0h-2l1 1 1-1zm-3 0h-1 1zm0 0h-1 1zm-46-1h-1 1zm40 0h-2 2zm-85 0v-1h-1l1 1zm122-5c0-2 0-2-2-1v1h2zm-112-1-1-1-1 2 2-1zm111-1v-1h-2v1h2zm-104-2 1-1h-1c1 1 0 1-1 1h-1l2 1v-1zm97 0h-2 2zm-92 0v-2l-1 1v1h1zm13-4v-1l-1 1h1zm69 0h-1 1zm-74 0 2-1 1-1h-3l-1 1-1 1h2zm69-1v1-1zm4 0h-2l1 1 1-1zm-58-3h-1s-1 0 0 0h1zm10 0h-3 3zm7 0-2-1h-2l1 1h3zm29 0h-1 1zm-8-1h6l-2-1h-9l-3 1h3l3 1 2-1zm-10 0-4-1c-1 1 0 1 2 1a127 127 0 0 1 2 0zm-23 0v-1h-2v1h2zm86 240v-1 1zm40-40 1-1v1h-1zm-242-77v-3l1-2v4c0 1 0 2-1 1zm36-85h1l2-2 2-2v1l-1 1-1 1-2 1h-1z" transform="translate(559 1024)"/>
  <path style="fill:#fda100;stroke-width:.264583" d="M40-139a109 109 0 0 1-87-50A110 110 0 0 1 57-359a110 110 0 0 1-17 220zm-12-33 1-9v-9h15v18h14v-19h6c11-1 19-3 26-7 5-4 8-9 10-16 1-5 2-13 0-18l-6-12-11-7-3-1 2-2c4-3 8-9 10-15l1-9-4-13-4-6a36 36 0 0 0-20-9l-6-1-1-10v-9H44v9l-1 9a147 147 0 0 1-14 0v-18H15l-1 9v9H3c-12 0-12 0-13 2v3l3 10 1 2H6v84H-6l-4 14 2 2H3l11 1 1 9v9h13zm2-35v-35h30l8 3c3 1 5 2 6 4 3 2 4 8 4 12-1 4-2 7-4 9-4 4-12 6-22 7H30zm0-49v-35h21c10 2 16 5 18 10l1 8c0 4-1 8-4 10-2 3-6 5-11 6H42l-12 1z" transform="translate(559 1024)"/>
  <path style="fill:#fa9703;stroke-width:.264583" d="M20-166v-6h9v-18h15v6h-8l-1 8v10H20zm29 0v-6h9v-9l1-9 3-1 15-2c12-3 19-9 23-18l1-13c0-6-1-10-3-14l-2-3 3 1c3 3 6 7 7 11l1 11-1 13c-2 4-4 8-7 10a35 35 0 0 1-15 8 96 96 0 0 1-19 3 208 208 0 0 0-1 18H49zm-83-7a109 109 0 0 1 2-154 107 107 0 0 1 63-32 112 112 0 0 1 93 33v1l-1-1-2-2-1-1-2-1-2-2-1-1-3-1-2-2-2-1-2-1-3-2a355 355 0 0 1-15-7l-2-1h-3a105 105 0 0 0-27-5 120 120 0 0 0-44 7l-3 2H8l-3 1a7977 7977 0 0 0-19 12 96 96 0 0 0-22 21 54 54 0 0 1-3 3 100 100 0 0 1-3 6l-1 2-2 3a148 148 0 0 1-4 9l-1 2a64 64 0 0 0-6 20 118 118 0 0 0 13 77 75 75 0 0 1 5 8l2 2 2 3 1 2h1v1l1 1 1 1-4-3zm31-12-2-1v-3l10-1h9v5H-3zm33-22v-35h10c17 0 25 1 31 4l5 5h-3c-2-1-4-2-9-2l-16-1H36a275 275 0 0 0-1 29h-5zm57-42-4-2-3-1 2-2c4-3 8-8 10-14l1-6v-7l-3-10c-2-2-2-3-1-3a20 20 0 0 1 7 10l2 6c1 5 2 10 1 14l-2 4v1l-1 2-2 4-2 2c-3 3-3 3-5 2zm-57-8v-34h8c14 0 21 1 26 5l4 4h-1a28 28 0 0 0-11-3H36a229 229 0 0 0 0 28h-6zM5-285h-6l-1-6h8v6H5zm56-22h-2v-14h2c4 0 4-1 4 7l-1 7h-3zm-32-1a60 60 0 0 1 0-13h6v13h-6zm83-24h1-1z" transform="translate(559 1024)"/>
  <path style="fill:#fb6d00;stroke-width:.264583" d="m50-167-1-2v-2l5-1h5v-18l5-1c12 0 21-3 27-8 7-5 10-12 11-23 0-6-1-10-3-15l-1-3 4 5 5 11a45 45 0 0 1-3 22c-6 10-17 15-36 17h-4v9l-1 9H50zm-30-2v-3h9v-18h14v5h-8v9l-1 9H20zm-59-10a110 110 0 0 1 74-180l25 1a110 110 0 0 1 58 26l-5-3a108 108 0 0 0-128 3 111 111 0 0 0-24 153zm37-6-2-2c-1-1 0-3 1-3h17v5H-2zm32-23v-34h8c17 0 26 1 32 4l5 4h-3c-5-2-10-3-25-3l-12 1v29h-2l-3-1zm56-42-3-1-2-1c5-4 8-8 10-13 2-4 2-6 2-10a35 35 0 0 0-4-17l5 5 4 10v11c-1 5-3 11-7 15-2 2-3 2-5 1zm-56-7v-34h9c11 0 16 1 21 3l7 4v1h-2l-7-2H35v28h-5zM0-286l-1-2-1-3h7l1 3v2H0zm61-21-2-1v-13h2l3 1v13h-3zm-31-2-1-5v-6l3-1 2 1v12l-4-1z" transform="translate(559 1024)"/>
  <path style="display:inline;fill:#5acf00;stroke-width:.264583" d="m39 218-5-2c-5-2-9-7-11-13l-13-72-3-20-8-1-10-1c-2-2-2-1-2-15l1-12 3-3 37-1h35l1-1 6-9 17-26 12-20c1-3 14 9 7 5l-7-5 3-5c1-1 2-1 6 1 1 1 3 3 5 3 3 2 3 3 3 4 0 2 2-1-15 28L87 78a1831 1831 0 0 0 65 0l-14-25c-17-29-15-26-15-28 0-1 0-2 3-3l5-4c4-2 5-2 6-1l3 5 18 28 1 2 13 21 3 5h36l37 1 3 3 1 12c0 14 0 13-2 15l-10 1-7 1-1 1-8 45c-7 48-7 46-10 50-3 5-7 8-12 10l-2 1H39zm161-4 7-5h-9a5532 5532 0 0 1-165 0h-1l1 1 6 4a2141 2141 0 0 0 161 0zM53 193l2-3v-30l-1-29v-1h-1l-6-1-7 1v31a484 484 0 0 0 1 32h12zm29 0 1-1a1170 1170 0 0 0 0-61v-1l-3-1h-6c-4 0-5 1-5 2a1774 1774 0 0 0 0 61l1 1h12zm30 0 1-2v-11l-1-30v-20l-7-1-7 1v1l-1 30c0 33 0 31 2 32h13zm28 0c2-1 2 1 1-32v-31l-6-1-8 1a559 559 0 0 0 1 63h12zm30 0v-2l1-11a2834 2834 0 0 1-1-50l-5-1h-6l-3 1v1l-1 30 1 31 7 1h7zm28 0c2-1 2 1 1-32v-31l-7-1h-6l-1 1v1l-1 29a75066 75066 0 0 1 2 33h12zm32-77 1-4H8l1 3 110 1a8692 8692 0 0 1 111 0zm17-9 1-1 1-7-1-7h-63v3l-12 8-4-2-3-4c-2-5-3-5-4-5a4429 4429 0 0 0-86 0l-3 4-4 6-3 1-12-8v-2l-1-1a1658 1658 0 0 0-62 0l-1 7 1 7 1 1h255zM67 95c1-1 0-1-2-1h-2l4 1zm108 0c1-1 0-1-1-1h-2l3 1zM68 88l-1-1h-4l-1 1h5a50 50 0 0 0 1 0zm106-1 2 1-1-1h-3v1l2-1zM60 84v-2H-6l-1 1-1 2h67Zm99 1v-2l-1-1H81l-1 1v2a509 509 0 0 0 79 0zm88 0-1-2-1-1h-33a689 689 0 0 0-33 2l1 1h67z" transform="translate(418 599) scale(1.53936)"/>
  <path style="display:inline;fill:#94d562;stroke-width:.264583" d="m39 218-2-1c-7-2-12-7-15-14l-7-41a72213 72213 0 0 1-9-51H1c-10 0-12 0-13-3l-1-2V82l1-2 2-2h74v-1a876 876 0 0 1 18-26l3 2 2 1a90 90 0 0 1 8 5l16-25c2-3 2-3-5-7l-7-5 3-5c1-1 2-1 6 1a262 262 0 0 0 8 6c1 1 0 2-1 4a10527 10527 0 0 1-28 49l32 1 33-1a1007 1007 0 0 0-29-49v-4l3-2 5-4c4-2 5-2 6-1l3 5-7 5-6 4 5 9a410 410 0 0 0 13 18 75 75 0 0 1 9-6l3-1 1-1 1 2 13 21 3 5h74l2 2 1 2v24l-1 1c0 2-2 3-3 3l-8 1h-7l-2 8-14 83c-2 7-8 13-15 15l-2 1H39zm14-29 1-29v-29l-1-1H41l-1 1a634 634 0 0 0 1 58l6 1 6-1zm30 0v-59H69v30l1 29 6 1 7-1zm28 0 1-29v-30H98v1a6704 6704 0 0 0 1 58l6 1 6-1zm29 0 1-29-1-30h-13v30l1 29 6 1 6-1zm29 0 1-29v-30h-14v59l7 1 6-1zm29 0 1-29-1-30h-12l-1 1v58l7 1 6-1zM60 84v-1H27a4481 4481 0 0 0 33 1zm186 0v-1h-67v1l1 1h33l33-1zm-87 0v-1H80v1a1996 1996 0 0 0 79 0z" transform="translate(418 599) scale(1.53936)"/>
  <path style="display:inline;fill:#63e200;stroke-width:.264583" d="m39 218-5-2c-5-2-9-7-11-13l-13-72-3-20-8-1-10-1c-2-2-2-1-2-15l1-12c1-3 2-3 4-4h71l1-1a893 893 0 0 0 18-26l3 2 2 1a90 90 0 0 1 8 5l16-25c2-3 2-3-5-7l-7-5 3-5c1-1 2-1 6 1 1 1 3 3 5 3 3 2 3 3 3 4 0 2 2-1-15 28L87 78a1831 1831 0 0 0 65 0l-14-25c-17-29-15-26-15-28 0-1 0-2 3-3l5-4c4-2 5-2 6-1l3 5-7 5-6 4 5 9a410 410 0 0 0 13 18 75 75 0 0 1 9-6l3-1 1-1 1 2 13 21 3 5h36l37 1 3 2v1l1 12c0 14 0 13-2 15l-10 1-7 1-1 1-8 45c-7 48-7 46-10 50-3 5-7 8-12 10l-2 1H39zm15-29v-59h-1l-6-1-7 1v30a546 546 0 0 0 1 30h6l7-1zm28 1 1-1a506 506 0 0 0 0-58v-1l-3-1-10 1h-1v60h13zm30-1v-59l-7-1-7 1v29a544 544 0 0 0 1 31h12l1-1zm28 1 1-1a545 545 0 0 0 0-59l-6-1-8 1v59l1 1h12zm30 0v-60l-5-1h-6l-3 1v29a541 541 0 0 0 1 31h13zm28 0 1-1v-59l-7-1h-6l-1 1v59l1 1h12zM60 84v-2H-6l-1 1-1 2h67zm99 1v-2l-1-1H81l-1 1v2a509 509 0 0 0 79 0zm88 0-1-2-1-1h-33a690 690 0 0 0-33 2l1 1h67z" transform="translate(418 599) scale(1.53936)"/>
  <path style="fill:#4fb400;stroke-width:.264583" d="M40 218h-1l-1-1-4-1c-7-4-11-10-12-17a6241 6241 0 0 1-4-35v-1a111 111 0 0 1 0-11l1 5a96 96 0 0 0 2 6l8 1h9v-1l1-17v-18c1-2 2-2 7-2l8 1 1 18 1 17v2h5l6-1 1-17c0-20 0-19 2-20h6l8 1 1 21v15l5 1h5v-1l1-1c0 1 0 0 0 0a618 618 0 0 0 1-34c1-2 2-2 8-2h6l2 2v17l1 17v2h10l1-1 1-17v-18l2-2h6c6 0 7 0 8 2v15l1 20 6 1h5v-9l1-27c1-2 1-2 7-2h7l2 2v17a523 523 0 0 0 2 19h10v-1a3449 3449 0 0 0 3-37h6c6 0 7 0 8 2v17l1 18v1h17l2-6 1-6v1a52 52 0 0 0 0 9v2l1-1 1-1v-3a605 605 0 0 1-7 44c-1 3-2 6-5 9l-5 3-4 2-2 1a3681 3681 0 0 1-160 0zm160-4a20 20 0 0 0 14-17l2-14-1 6-2 6c-2 5-5 9-10 11-3 2 3 2-83 2l-81-1c-6-1-11-6-13-12-1-2-2-4-2-9l-1-3a362 362 0 0 0 4 21c2 5 7 9 12 10h161zM53 193l2-1v-24l-1-19v-19l-7-1-7 1v19a337 337 0 0 1-1 32v11c1 2 2 2 8 2l6-1zm29 0 2-1v-42l-1-19-3-2h-6c-4 0-5 1-5 2a670 670 0 0 0-1 49v12c1 2 2 2 8 2l6-1zm29 0c2-1 2-1 2-12v-13l-1-20v-18l-7-1-7 1v1l-1 18a248 248 0 0 1 0 31v12c1 2 2 2 8 2l6-1zm29 0 2-1v-23a346 346 0 0 1-1-39l-6-1-8 1v18a463 463 0 0 1-1 44l2 1 6 1 6-1zm29 0 2-2v-24a512 512 0 0 1-1-37l-5-1h-6l-3 1v1l-1 19a296 296 0 0 1 0 31v11c1 2 2 2 8 2l6-1zm29 0 2-1v-23a376 376 0 0 1-1-39l-7-1h-6l-1 1v14a373 373 0 0 1-1 37c0 11 0 11 2 12l6 1 6-1zM12 138s0-1 0 0zm-1-2c1 0 1 0 0 0zm217-4c0-1 0-1 0 0zm1-2zM7 111l-8-1-10-1c-2-2-2-2-2-13s0-15 1-13l1-1 1-1 2-1h69l1-1 1-1 2-1 2-3 1-2 2 1a2176 2176 0 0 1 11 8l-2 4c0 1 0 1 0 0l-3 5a797 797 0 0 0-9 12l-7-3-6-5v-1l5-8 1-1 1-2h-1a765 765 0 0 0-69 2l-1 11c0 12 0 12 2 13h255c2-1 2-1 2-13a198 198 0 0 0-1-11l-1-1-2-1a1821 1821 0 0 0-66 2l1 1 5 8v1l-6 5-7 3a548 548 0 0 0-14-23 96 96 0 0 0 11-6l2-1 1 2a116 116 0 0 1 4 4l1 1 1 1h34a653 653 0 0 1 39 3c1-2 1 2 1 13s0 11-2 13l-10 1-7 1H7zm60-16 2-2 1-1-1-3c-1-3-4-3-6-2s-3 4-2 5l1 2c1 1 3 2 5 1zm-2-4-3-1 1-1c1-2 4-2 5 0v2h-3zm111 4 1-2 1-1v-3c-2-4-8-3-9 1l1 3c1 2 4 3 6 2zm-6-4 2-3h2l2 1 1 1-3 1h-4zm-89-9 1-2 2-2 3-5a2643 2643 0 0 0 11-16 393 393 0 0 0-12 21l-2 1-1 1a2272 2272 0 0 0 69-2 400 400 0 0 0-15-29 3187 3187 0 0 0 21 33 3520 3520 0 0 1-77 0zm33-53v-2a142 142 0 0 0-13-8l2-3 2 1 9 6c2 1 3 2 1 5l-1 2v-1zm10-1-1-4 2-1a292 292 0 0 0 11-7l2 3-7 4-7 5v1-1z" transform="translate(418 599) scale(1.53936)"/>
  <path style="fill:#212220;stroke-width:.999999" d="m439 84-2 1c-2 0-134 211-134 213l-2 3a431 431 0 0 0-30 45l-9 14c-8 13-10 17-7 21 2 2 42 28 45 28 2 1 5 0 8-1a775 775 0 0 0 47-74l11-18 4 1h6l44-77 51-90-25 39-69 108c38-62 110-184 103-188a1104 1104 0 0 1-41-25zm122 0-6 2a1104 1104 0 0 1-40 27 5500 5500 0 0 0 134 220c-1-2 0-3 25-18l23-15A8210 8210 0 0 0 561 84zm-29 72v1l47 80 46 80h5l5-1-20-31a11919 11919 0 0 1-83-129zm163 140-8 5a49599 49599 0 0 0-40 24c-4 2-4 3-1 6l6 12a800 800 0 0 0 42 66h6c3 0 40-23 43-27 5-4 4-8-5-22l-9-14-8-12c-1-4-8-14-9-15l-5-6-8-12zm-399 53c6 0 12 3 16 9 2 4 3 5 3 11 0 9-4 14-11 18-6 2-11 3-15 1-18-6-18-30-2-37 3-2 6-2 9-2zm409 0 9 2c14 7 15 28 1 35-7 4-13 4-19 1-7-4-10-9-10-18 0-6 0-7 3-11 4-6 10-9 16-9zm116 490v1c-12 3-5 3-321 3s-309 0-320-3l1 1 9 3 5 2 4 1a59780 59780 0 0 0 612-3l8-3 2-2z" transform="translate(398 589) scale(.40729)"/>
  <path style="fill:#000;stroke-width:.926499" d="M-729-282c12 4 24-7 18-17-2-4-6-6-11-7-12-1-21 9-15 18 2 4 4 5 8 6zm-82-85c24 4 39-23 18-36-10-6-25-5-32 3l-4 3c-3 1-8 6-8 9-1 4 1 7 11 14 8 5 9 6 15 7zm151 28a98 98 0 0 0 50-1l6-2 9 5a86 86 0 0 0 72 9c4-1 4-1 8 1 6 3 16 7 23 8 9 1 21-1 28-4l4-1 22 6 85 26-40-33-40-33-1-7c-1-7-4-14-9-20a64 64 0 0 0-30-17l6-4c24-15 32-44 18-65-6-10-10-14-22-20-10-5-17-8-28-9h-6v-6c1-8-3-24-6-31-4-7-10-16-17-22-6-6-21-16-30-19-16-6-34-8-50-6-9 1-12 0-17-4-8-8-11-19-7-35 3-12 2-18-3-26-3-4-4-5-12-10-7-5-9-5-14-6-32-5-56 22-41 46 5 8 13 13 24 16 18 4 31 10 34 15l2 6c1 5-1 8-7 11-7 4-15 11-21 18-9 10-14 19-17 32l-1 7-12 1c-13 2-24 6-34 13-7 5-18 17-22 25-9 20-4 45 13 61a92 92 0 0 0 40 20l1 7c0 11 6 22 15 31 5 6 19 14 27 17zm-126-142h7c4-1 5-2 10-7l5-8c1-4-3-8-6-9l-7-2c-6-2-15-1-20 5s-4 14 4 18l7 3zm418 209 11-2h-24c-3 0-4 2-3 3l16-1zm-447-269c5 0 8-2 8-6 2-9-12-13-18-6-2 2-1 8 2 11 2 2 3 2 8 1zm98 14c4-1 6-4 4-6s-4-3-6-2c-7 1-4 9 2 8zm380 226-18-41c-4-7-6-8-8-7-3 1 0 9 10 25s15 24 16 23zm17-5a403 403 0 0 0 6-59c-1-2-4-2-6-1-3 2-4 18-2 44a1823 1823 0 0 1 2 16zm-411-267 4 1 6 1c6 2 13-1 14-6 1-3 0-5-3-7l-2-4c-1-2-2-4-6-6l-7-6c-1-1-3-2-6-1-6 0-9 3-9 8l-1 4c-1 2-1 7 1 10s6 6 9 6zm309 184c13 4 28-2 32-13 2-5 2-10-1-15-2-4-3-5-8-8s-7-3-11-4c-17-1-30 10-27 24 1 7 7 13 15 16zm64-57c0-10-4-39-6-45s-5-8-8-6c-2 1-2 5 1 15a412 412 0 0 0 13 36zm-349-247c7 2 12-3 11-8-1-6-7-9-13-6-8 3-7 13 2 14zm226 124c6 0 11-4 10-9-1-6-8-8-13-6-9 4-6 14 3 15zm77 10c3 0 3-3 1-4h-3c-2 0-2 3-1 4h3zm-181-120c4 1 10-1 12-4 4-4 2-12-3-15-3-2-10-2-14 0-5 2-7 5-6 10s4 9 11 9zm114 25c9 1 16-2 19-9 3-6 0-14-8-17-9-5-21 0-24 8-1 5-1 7 2 11 3 5 5 6 11 7zm-162-118c6 1 11-1 15-5 4-5 4-9 2-14-6-9-20-10-27-2s-2 19 10 21z" transform="translate(840 1006)"/>
  <text xml:space="preserve" style="font-style:italic;font-variant:normal;font-weight:700;font-stretch:normal;font-size:74.6667px;line-height:1.25;font-family:sans-serif;-inkscape-font-specification:'sans-serif Bold Italic';text-align:center;text-anchor:middle;fill:#fff;fill-opacity:1;stroke:#fff" x="376" y="540" transform="matrix(.93329 -.4132 .4952 .77876 -381 332)"><tspan x="376" y="540">CO</tspan></text>
  <text xml:space="preserve" style="font-style:italic;font-variant:normal;font-weight:700;font-stretch:normal;font-size:53.3333px;line-height:1.25;font-family:sans-serif;-inkscape-font-specification:'sans-serif Bold Italic';fill:#fff;fill-opacity:1;stroke:none" x="434" y="555" transform="matrix(.93329 -.4132 .4952 .77876 -381 332)"><tspan x="434" y="555">2</tspan></text>
  <text xml:space="preserve" style="font-style:normal;font-variant:normal;font-weight:700;font-stretch:normal;font-size:156.633px;line-height:1.25;font-family:sans-serif;-inkscape-font-specification:'sans-serif Bold';text-align:center;text-anchor:middle;fill:#000;fill-opacity:1;stroke:none;stroke-width:.264583" x="-76" y="-1408" transform="translate(881 1529)"><tspan style="font-style:normal;font-variant:normal;font-weight:700;font-stretch:normal;font-size:156.633px;font-family:sans-serif;-inkscape-font-specification:'sans-serif Bold';text-align:center;text-anchor:middle;stroke-width:.264583" x="-76" y="-1408">Greening Bitcoin</tspan></text>
  <text xml:space="preserve" style="font-style:italic;font-variant:normal;font-weight:400;font-stretch:normal;font-size:108.656px;line-height:1.25;font-family:sans-serif;-inkscape-font-specification:'sans-serif Italic';text-align:center;text-anchor:middle;stroke-width:.264583" x="-79" y="-424" transform="translate(881 1529)"><tspan style="font-style:italic;font-variant:normal;font-weight:400;font-stretch:normal;font-family:sans-serif;-inkscape-font-specification:'sans-serif Italic';text-align:center;text-anchor:middle;stroke-width:.264583" x="-79" y="-424">finally a carbon neutral coin</tspan></text>
</svg>
